<svg width="300" height="300" viewBox="0 0 300 300" fill="none" xmlns="http://www.w3.org/2000/svg">
<path d="M216.733 110.657C216.733 120.204 209 127.942 199.454 127.942C189.912 127.942 182.174 120.204 182.174 110.657C182.174 101.111 189.912 93.3776 199.454 93.3776C209 93.3776 216.733 101.111 216.733 110.657Z" fill="#989898"/>
<path d="M117.379 110.657C117.379 120.204 109.641 127.942 100.099 127.942C90.5575 127.942 82.8193 120.204 82.8193 110.657C82.8193 101.111 90.5575 93.3776 100.099 93.3776C109.641 93.3776 117.379 101.111 117.379 110.657Z" fill="#989898"/>
<path d="M91.2222 239.834C87.2918 239.834 84.1016 236.648 84.1016 232.713C84.1016 201.975 108.825 176.967 139.217 176.967H163.219C193.611 176.967 218.334 201.837 218.334 232.404C218.334 236.34 215.149 239.53 211.213 239.53C207.283 239.53 204.098 236.34 204.098 232.404C204.098 209.694 185.759 191.213 163.219 191.213H139.217C116.677 191.213 98.3439 209.826 98.3439 232.713C98.3429 236.648 95.1526 239.834 91.2222 239.834Z" fill="#989898"/>
<path d="M150.002 300C67.3106 300 0.0380859 232.708 0.0380859 149.998C0.0380859 67.2915 67.3106 0 150.002 0C232.689 0 299.962 67.2915 299.962 149.998C299.962 232.708 232.689 300 150.002 300ZM150.002 14.2466C75.1625 14.2466 14.2799 75.1439 14.2799 149.998C14.2799 224.857 75.163 285.753 150.002 285.753C224.838 285.753 285.72 224.856 285.72 149.998C285.72 75.1434 224.838 14.2466 150.002 14.2466Z" fill="#989898"/>
</svg>
