<svg width="68" height="41" viewBox="0 0 68 41" fill="none" xmlns="http://www.w3.org/2000/svg">
<path d="M9.11885 26.0581C9.83832 26.0581 10.4216 25.4749 10.4216 24.7554C10.4216 24.0359 9.83832 23.4527 9.11885 23.4527C6.45858 23.4571 4.06295 21.8434 3.06755 19.3763C2.07215 16.9093 2.67705 14.0849 4.59551 12.2419C6.51397 10.3989 9.36039 9.90784 11.7855 11.0014C12.1134 11.1489 12.4877 11.1544 12.8197 11.0165C13.1518 10.8786 13.4121 10.6096 13.5389 10.2732C14.3606 8.0806 16.1247 6.37369 18.3431 5.62461C20.5616 4.87553 22.9993 5.16368 24.9819 6.40936C25.5463 6.76372 26.2871 6.635 26.6989 6.11104C28.4222 3.90122 31.068 2.60928 33.8703 2.60928C36.6726 2.60928 39.3184 3.90122 41.0417 6.11104C41.4535 6.635 42.1943 6.76372 42.7587 6.40936C44.7413 5.16368 47.179 4.87553 49.3975 5.62461C51.6159 6.37369 53.38 8.0806 54.2017 10.2732C54.3286 10.6096 54.5889 10.8786 54.9209 11.0165C55.253 11.1544 55.6272 11.1489 55.9551 11.0014C58.3802 9.90784 61.2267 10.3989 63.1451 12.2419C65.0636 14.0849 65.6685 16.9093 64.6731 19.3763C63.6777 21.8434 61.282 23.4571 58.6218 23.4527C57.9023 23.4527 57.3191 24.0359 57.3191 24.7554C57.3191 25.4749 57.9023 26.0581 58.6218 26.0581C63.658 26.0581 67.7407 21.9754 67.7407 16.9391C67.7407 11.9029 63.658 7.82019 58.6218 7.82019C57.7711 7.81917 56.9246 7.93891 56.1075 8.17583C53.502 3.20038 47.414 1.19644 42.3627 3.65153C40.1531 1.32031 37.0823 -7.62939e-05 33.8703 -7.62939e-05C30.6583 -7.62939e-05 27.5876 1.32031 25.378 3.65153C20.3276 1.19585 14.24 3.19795 11.6331 8.17192C10.8159 7.93633 9.96935 7.8179 9.11885 7.82019C4.0826 7.82019 -9.91821e-05 11.9029 -9.91821e-05 16.9391C-9.91821e-05 21.9754 4.0826 26.0581 9.11885 26.0581Z" fill="#121619"/>
<path d="M45.1166 29.6718L59.4464 17.9474C59.8148 17.6554 59.9974 17.1875 59.9239 16.7231C59.8505 16.2586 59.5325 15.8698 59.0919 15.7057C58.6513 15.5416 58.1565 15.6276 57.7971 15.9308L43.4673 27.6552C42.9234 28.1141 42.8485 28.9247 43.299 29.4756C43.7495 30.0265 44.5588 30.1138 45.1166 29.6718Z" fill="#121619"/>
<path d="M9.11885 15.6364C8.56802 15.636 8.07644 15.982 7.89107 16.5007C7.70569 17.0194 7.86659 17.5986 8.29294 17.9474L22.6227 29.6718C23.1805 30.1138 23.9897 30.0265 24.4403 29.4756C24.8908 28.9247 24.8159 28.1141 24.272 27.6552L9.94216 15.9308C9.71016 15.7402 9.41912 15.6361 9.11885 15.6364Z" fill="#121619"/>
<path d="M32.5677 11.7284V28.6636C32.5677 29.3831 33.1509 29.9663 33.8704 29.9663C34.5899 29.9663 35.1731 29.3831 35.1731 28.6636V11.7284C35.1731 11.0089 34.5899 10.4257 33.8704 10.4257C33.1509 10.4257 32.5677 11.0089 32.5677 11.7284Z" fill="#121619"/>
<path d="M44.1056 18.913L48.0138 12.3994C48.2636 12.0001 48.2785 11.4971 48.0526 11.0837C47.8268 10.6704 47.3954 10.4112 46.9244 10.4057C46.4534 10.4003 46.0162 10.6496 45.7809 11.0576L41.8728 17.5712C41.6229 17.9705 41.6081 18.4735 41.8339 18.8869C42.0598 19.3002 42.4911 19.5594 42.9621 19.5649C43.4331 19.5703 43.8703 19.321 44.1056 18.913Z" fill="#121619"/>
<path d="M25.4222 19.3582C26.0387 18.9876 26.2382 18.1875 25.8678 17.5709L21.9596 11.0574C21.7244 10.6493 21.2871 10.4001 20.8161 10.4055C20.3452 10.4109 19.9138 10.6701 19.6879 11.0835C19.4621 11.4968 19.4769 11.9999 19.7268 12.3992L23.6349 18.9127C24.0055 19.5292 24.8056 19.7286 25.4222 19.3582Z" fill="#121619"/>
<rect y="39" width="68" height="2" rx="1" fill="#121619"/>
</svg>
