<svg width="56" height="56" viewBox="0 0 56 56" fill="none" xmlns="http://www.w3.org/2000/svg">
<path d="M55.6588 24.0163C55.6133 23.7671 55.4828 23.5414 55.2893 23.3777C53.478 21.8455 53.1722 20.156 52.9265 18.7985L52.8943 18.6217C52.8094 18.1584 52.4373 17.8014 51.971 17.7357C51.81 17.7131 51.6395 17.7015 51.4644 17.7015C50.4235 17.7015 48.957 18.1401 48.0272 19.1198C47.8686 19.287 47.7668 19.5001 47.7364 19.7286C47.6582 20.3163 47.6179 20.8542 47.5825 21.3288C47.4485 23.1172 47.3301 23.3069 46.7853 23.4792C46.4438 23.5873 46.1769 23.8556 46.0707 24.1975C45.5576 25.8493 44.8768 27.43 44.0527 28.9213C43.6458 28.1443 43.196 27.4454 42.7774 26.7951C41.7537 25.2045 40.945 23.948 41.2213 22.3909C42.1166 17.3439 41.6621 13.542 39.8701 11.0907C38.8722 9.72555 37.4505 8.79488 35.7229 8.36012C36.0667 5.67693 37.9314 4.46046 38.9635 4.18385C39.547 4.02755 39.8933 3.42774 39.7369 2.84423C39.5805 2.26082 38.9807 1.91421 38.3974 2.07084C36.2662 2.64188 33.9898 4.73827 33.555 8.08668C31.8094 8.08176 30.224 8.61485 28.9194 9.65719C26.5355 11.562 25.0951 15.1016 24.6383 20.1774C24.5008 21.7049 23.5127 22.596 22.1449 23.8292C21.0285 24.8359 19.785 25.9599 18.7888 27.659C17.5479 27.1537 16.2168 26.8259 14.8269 26.7072C15.2208 24.1312 17.0326 22.955 18.0448 22.6839C18.6283 22.5276 18.9746 21.9278 18.8182 21.3444C18.6618 20.7608 18.062 20.4143 17.4787 20.571C16.9291 20.7182 16.37 20.9681 15.8351 21.3135C15.5863 20.0853 14.9843 18.9334 14.0727 18.022C12.8515 16.8007 11.2276 16.1281 9.50031 16.1281C8.93495 16.1281 8.37189 16.202 7.82666 16.3474C7.44855 16.4484 7.15312 16.7438 7.05217 17.1219C6.45794 19.3473 7.09953 21.7406 8.72659 23.368C9.85874 24.5001 11.3374 25.1597 12.9233 25.2501C12.7851 25.7027 12.6823 26.1844 12.6225 26.6952C5.57342 27.2248 0 33.1293 0 40.3113C0 47.8406 6.12555 53.9661 13.6547 53.9661C16.453 53.9661 19.1184 53.1344 21.4003 51.5568C21.7597 51.7145 22.1203 51.8663 22.4826 52.0092C25.7743 53.3076 29.1011 53.966 32.3702 53.966C37.6285 53.966 42.5088 52.2479 46.4835 48.9974C50.6379 45.5999 53.6997 40.5727 55.3377 34.4593C55.8722 32.4654 56.3438 27.7673 55.6588 24.0163ZM23.61 25.4539C25.0812 24.1272 26.6025 22.7553 26.817 20.3736C27.2183 15.915 28.385 12.8844 30.285 11.3664C31.4128 10.4653 32.8069 10.1178 34.429 10.3346C36.0309 10.5484 37.2675 11.2371 38.1043 12.3818C39.5305 14.3329 39.8546 17.5719 39.0673 22.0088C38.6411 24.4108 39.8088 26.2248 40.938 27.9791C41.5708 28.9623 42.2223 29.9761 42.6652 31.1561C38.979 36.4793 33.3854 40.3614 27.2305 41.7829C27.283 41.2949 27.3097 40.8033 27.3097 40.3113C27.3097 35.3775 24.6792 31.0466 20.7471 28.6468C21.5655 27.2999 22.6017 26.3632 23.61 25.4539ZM10.2732 21.8211C9.3543 20.9021 8.91045 19.6136 9.04455 18.3396C9.1957 18.3236 9.34762 18.3154 9.50009 18.3154C10.643 18.3154 11.7176 18.7605 12.5256 19.5685C13.4446 20.4875 13.8885 21.7762 13.7543 23.0501C13.6033 23.066 13.4513 23.0741 13.2991 23.0741H13.2989C12.1557 23.0742 11.0812 22.6292 10.2732 21.8211ZM13.6547 51.7786C7.33162 51.7786 2.1875 46.6345 2.1875 40.3113C2.1875 33.9881 7.33162 28.844 13.6547 28.844C19.9779 28.844 25.1221 33.9881 25.1221 40.3113C25.1221 40.9417 25.0706 41.5711 24.9688 42.1902C24.2652 42.281 23.5568 42.3387 22.845 42.3629C22.9949 41.6922 23.0732 41.0067 23.0732 40.3113C23.0732 39.0795 22.8362 37.877 22.3688 36.7375C22.1397 36.1788 21.501 35.9112 20.9418 36.1406C20.383 36.3699 20.1157 37.0087 20.345 37.5676C20.7038 38.4425 20.8857 39.3655 20.8857 40.3113C20.8857 40.999 20.7882 41.6746 20.5977 42.3288C19.0323 42.2281 17.4647 41.9694 15.9201 41.5555C15.6055 41.4712 15.2695 41.5316 15.0038 41.7201C14.0317 42.4103 13.0519 43.2784 12.4709 44.9429C12.3212 45.3719 12.4522 45.8487 12.8002 46.141C14.8094 47.8287 16.9086 49.2595 19.071 50.4209C17.4158 51.3124 15.5728 51.7786 13.6547 51.7786ZM53.2248 33.8933C50.2239 45.0925 42.4279 51.7786 32.3703 51.7786C26.4988 51.7786 20.3011 49.3714 14.8384 44.9843C15.1279 44.4646 15.4859 44.1068 15.8705 43.8014C17.9244 44.3082 20.013 44.5648 22.0871 44.5648C27.9571 44.5648 33.6172 42.5644 38.4553 38.7799C40.915 36.8559 43.0468 34.5375 44.7545 31.9667C44.7748 31.9392 44.794 31.9107 44.8116 31.8814C46.1596 29.8362 47.2394 27.6326 48.0009 25.3412C49.5337 24.5699 49.6507 23.0076 49.7641 21.4921C49.79 21.1457 49.8166 20.7905 49.8572 20.4156C50.1481 20.205 50.5337 20.0382 50.9202 19.9524C51.2117 21.3431 51.7785 23.1283 53.5695 24.7766C54.0762 27.9991 53.7083 32.0889 53.2248 33.8933Z" fill="#121619"/>
<path d="M35.2736 12.5854C34.7169 12.3522 34.0756 12.6142 33.842 13.1712C33.6084 13.7283 33.8705 14.3692 34.4277 14.6029C35.2234 14.9364 35.6628 17.3373 34.963 21.2806C34.8574 21.8754 35.254 22.4432 35.8489 22.5487C35.9136 22.5602 35.9779 22.5658 36.0413 22.5658C36.5616 22.5658 37.023 22.193 37.117 21.663C37.7429 18.1368 37.931 13.6995 35.2736 12.5854Z" fill="#121619"/>
<path d="M42.5034 43.8911C42.141 43.4078 41.4543 43.3108 40.971 43.6734C40.9706 43.6736 40.9659 43.6771 40.9656 43.6773C40.4784 44.034 40.3746 44.7165 40.7309 45.2039C40.9447 45.4963 41.2774 45.6511 41.6146 45.6511C41.8393 45.6511 42.066 45.5824 42.2609 45.44L42.2859 45.4215C42.7692 45.059 42.8658 44.3745 42.5034 43.8911Z" fill="#121619"/>
<path d="M39.9932 45.6598C39.7179 45.1221 39.059 44.9091 38.5212 45.1842C34.7776 47.0991 31.6192 47.0233 31.5726 47.0213C30.9714 47.0004 30.4634 47.4689 30.4398 48.0716C30.4162 48.6751 30.8863 49.1836 31.4899 49.2072C31.5067 49.2079 31.5655 49.2099 31.6632 49.2099C32.4449 49.2099 35.7028 49.0829 39.5174 47.1315C40.0552 46.8566 40.2682 46.1976 39.9932 45.6598Z" fill="#121619"/>
<path d="M20.3486 33.6856L20.3126 33.6495C19.8844 33.2237 19.1919 33.2254 18.7658 33.6537C18.3398 34.082 18.3417 34.7745 18.77 35.2005L18.7935 35.2241C19.0074 35.4404 19.2892 35.5486 19.571 35.5486C19.849 35.5486 20.1271 35.4432 20.3403 35.2324C20.7697 34.8077 20.7734 34.115 20.3486 33.6856Z" fill="#121619"/>
</svg>
