<svg width="56" height="56" viewBox="0 0 56 56" fill="none" xmlns="http://www.w3.org/2000/svg">
<path d="M14.8748 45.5C17.104 45.5011 19.3012 44.9696 21.2833 43.9498C22.0699 45.4068 23.2193 46.6362 24.6202 47.5189C26.0211 48.4016 27.6261 48.9078 29.28 48.9885C30.9339 49.0692 32.5805 48.7217 34.0607 47.9795C35.5409 47.2374 36.8045 46.1257 37.7292 44.7522C38.4797 45.2394 39.3551 45.4991 40.2498 45.5C43.1447 45.5 45.4998 42.7522 45.4998 39.375C45.4996 39.1119 45.485 38.849 45.4561 38.5875C47.0932 37.5116 48.1248 35.4797 48.1248 33.25C48.1248 33.1341 48.121 33.0182 48.1154 32.9025C50.1571 32.0627 51.6248 29.7906 51.6248 27.125C51.6247 26.7272 51.5915 26.3302 51.5255 25.938C53.6139 25.1287 55.1248 22.8296 55.1248 20.125C55.1248 16.7477 52.7698 14 49.8748 14C49.2451 13.9998 48.622 14.1289 48.0441 14.3793C49.5085 11.6255 49.0131 8.74394 48.9857 8.59333C48.9524 8.41006 48.8615 8.24221 48.7261 8.11421C48.5908 7.9862 48.4182 7.90472 48.2333 7.88162C46.0294 7.606 43.9389 8.29462 42.0208 9.92825C40.8355 10.9377 39.7359 12.2908 38.7449 13.9584C38.75 8.90756 37.6097 7.49695 37.3689 7.25611C37.288 7.17337 37.1915 7.10751 37.0849 7.06233C36.9784 7.01716 36.8639 6.99357 36.7482 6.99293C36.6324 6.9923 36.5177 7.01462 36.4107 7.05862C36.3037 7.10262 36.2064 7.16742 36.1246 7.24926C36.0428 7.3311 35.978 7.42836 35.934 7.53541C35.89 7.64245 35.8677 7.75716 35.8684 7.87289C35.869 7.98862 35.8926 8.10307 35.9378 8.20961C35.983 8.31615 36.0489 8.41267 36.1316 8.49358C36.1409 8.50298 37.0089 9.73827 36.9944 14.0457C36.8611 14.0644 36.7289 14.088 36.5988 14.1182C35.5944 12.3959 34.4757 10.9985 33.2666 9.95986C31.3381 8.30337 29.235 7.60403 27.0168 7.88173C26.8319 7.90483 26.6593 7.98631 26.524 8.11431C26.3887 8.24232 26.2977 8.41017 26.2644 8.59344C26.2373 8.7423 25.7415 11.6255 27.2079 14.3811C26.6294 14.1299 26.0055 14.0001 25.3748 14C22.9345 14 20.8779 15.9525 20.2922 18.5888C18.3807 17.7868 16.315 17.4192 14.2443 17.5126C12.1735 17.6061 10.1493 18.1582 8.31781 19.129C6.48634 20.0999 4.8933 21.4653 3.65372 23.1267C2.41413 24.7881 1.55893 26.7041 1.14985 28.7362C0.740776 30.7683 0.788037 32.8659 1.28822 34.8776C1.78841 36.8892 2.72904 38.7647 4.04219 40.3686C5.35535 41.9725 7.00827 43.2648 8.8816 44.1521C10.7549 45.0395 12.8019 45.4999 14.8748 45.5ZM29.7498 47.25C28.1923 47.25 26.6698 46.7881 25.3747 45.9228C24.0797 45.0575 23.0703 43.8276 22.4743 42.3886C21.8782 40.9496 21.7223 39.3662 22.0262 37.8386C22.33 36.311 23.08 34.9078 24.1814 33.8065C25.2827 32.7051 26.6859 31.9551 28.2135 31.6513C29.7411 31.3474 31.3245 31.5034 32.7635 32.0994C34.2024 32.6954 35.4323 33.7048 36.2977 34.9998C37.163 36.2949 37.6248 37.8174 37.6248 39.375C37.6225 41.4628 36.7921 43.4645 35.3157 44.9408C33.8394 46.4172 31.8377 47.2476 29.7498 47.25ZM33.4156 23.7815C32.881 24.2381 32.2029 24.4925 31.4998 24.5C29.5699 24.5 27.9998 22.5373 27.9998 20.125C27.9998 17.7126 29.5699 15.75 31.4998 15.75C32.2028 15.7579 32.8807 16.0123 33.4153 16.4689C32.7351 17.5671 32.3747 18.8333 32.3747 20.1252C32.3747 21.417 32.7351 22.6832 33.4153 23.7815H33.4156ZM36.5953 30.2162C36.1975 30.7315 35.661 31.1228 35.0488 31.3442C33.9523 30.617 32.7175 30.1239 31.4216 29.8956C30.8922 29.0693 30.6152 28.1064 30.6248 27.125C30.6248 26.8082 30.6525 26.4921 30.7077 26.1802C30.9692 26.2266 31.2343 26.2499 31.4998 26.25C32.6269 26.2446 33.7149 25.8365 34.5674 25.0993C34.9871 25.4543 35.4623 25.7376 35.9742 25.938C35.9082 26.3302 35.875 26.7272 35.8748 27.125C35.8706 28.1975 36.1173 29.2561 36.5953 30.2162ZM36.5448 32.5646C36.9434 32.3223 37.308 32.028 37.6291 31.6896C38.5581 32.6593 39.7832 33.25 41.1248 33.25C41.1248 34.9635 40.3219 36.4875 39.127 37.2C38.7177 35.4434 37.823 33.8372 36.5448 32.5646ZM41.834 16.4684C42.3687 16.0118 43.0468 15.7575 43.7498 15.75C45.6798 15.75 47.2498 17.7126 47.2498 20.125C47.2498 22.5373 45.6798 24.5 43.7498 24.5C43.0468 24.4921 42.3689 24.2376 41.8344 23.781C42.5146 22.6828 42.875 21.4166 42.875 20.1247C42.875 18.8329 42.5146 17.5667 41.8344 16.4684H41.834ZM43.7498 26.25C44.0154 26.2499 44.2805 26.2266 44.5419 26.1802C44.5972 26.4921 44.625 26.8082 44.6248 27.125C44.6248 29.5373 43.0548 31.5 41.1248 31.5C39.1949 31.5 37.6248 29.5373 37.6248 27.125C37.6249 26.8311 37.6489 26.5378 37.6965 26.2479C38.7947 26.2223 39.8501 25.8164 40.6824 25.0994C41.5351 25.8362 42.6229 26.2442 43.7498 26.25ZM40.2498 43.75C39.65 43.7464 39.0656 43.5592 38.5754 43.2134C39.104 42.0028 39.3761 40.6959 39.3748 39.375C39.3748 39.2593 39.372 39.1443 39.368 39.0297C39.6761 38.9022 39.9704 38.7435 40.2461 38.556C41.0196 39.0881 41.936 39.3736 42.8748 39.375C43.1678 39.3746 43.4601 39.3462 43.7477 39.29C43.7477 39.3183 43.7498 39.3465 43.7498 39.375C43.7498 41.7873 42.1798 43.75 40.2498 43.75ZM44.1817 37.3071C43.7758 37.5169 43.3254 37.6259 42.8685 37.6249C42.4116 37.6239 41.9616 37.513 41.5567 37.3015C42.4221 36.1288 42.8846 34.7074 42.8748 33.25C42.8748 33.1341 42.871 33.0182 42.8654 32.9025C43.1737 32.7751 43.4681 32.6167 43.7443 32.4296C44.5181 32.9626 45.4352 33.2486 46.3748 33.25C46.3748 35.0385 45.5139 36.631 44.1817 37.3071ZM49.8748 15.75C51.8048 15.75 53.3748 17.7126 53.3748 20.125C53.3748 22.5373 51.8048 24.5 49.8748 24.5C49.1718 24.4921 48.4939 24.2376 47.9594 23.781C48.6396 22.6828 49 21.4166 49 20.1247C49 18.8329 48.6396 17.5667 47.9594 16.4684C48.4939 16.0118 49.1719 15.7576 49.8748 15.75ZM49.8032 26.2479C49.8508 26.5378 49.8748 26.8311 49.8748 27.125C49.8748 29.5373 48.3048 31.5 46.3748 31.5C45.9161 31.499 45.4642 31.3882 45.0571 31.1769C45.9249 30.0053 46.3875 28.5829 46.3748 27.125C46.3751 26.5921 46.3155 26.061 46.197 25.5415C46.4109 25.4091 46.6149 25.2613 46.8074 25.0993C47.6418 25.8193 48.7013 26.2255 49.8032 26.2479ZM47.3249 9.57497H47.3282C47.3782 10.6338 47.2677 12.7568 45.8648 14.5208C45.2118 14.1801 44.4864 14.0015 43.7498 14C42.6228 14.0053 41.5348 14.4134 40.6823 15.1506C40.5476 15.0374 40.4072 14.9311 40.2618 14.8321C42.7655 10.6168 45.3675 9.57497 47.3249 9.57497ZM37.6248 15.75C39.5548 15.75 41.1248 17.7126 41.1248 20.125C41.1248 22.5373 39.5548 24.5 37.6248 24.5C35.6949 24.5 34.1248 22.5373 34.1248 20.125C34.1248 17.7126 35.6949 15.75 37.6248 15.75ZM27.9246 9.57486H27.9257C29.8852 9.57486 32.4866 10.6182 34.9882 14.8317C34.8427 14.9309 34.7022 15.0373 34.5674 15.1506C33.7146 14.4138 32.6268 14.0058 31.4998 14C30.7632 14.0015 30.0378 14.1801 29.3847 14.5209C27.9928 12.7659 27.8782 10.6363 27.9246 9.57486ZM28.4424 25.0994C28.6349 25.2613 28.8389 25.4091 29.0527 25.5415C28.9342 26.061 28.8746 26.5921 28.8748 27.125C28.8729 28.0271 29.0456 28.9211 29.3832 29.7576C28.3958 29.7941 27.4199 29.9834 26.4905 30.3187C25.7857 29.4947 25.3748 28.339 25.3748 27.125C25.3749 26.8311 25.3989 26.5378 25.4465 26.2479C26.5484 26.226 27.6081 25.8198 28.4424 25.0994ZM25.3748 15.75C26.0778 15.7579 26.7558 16.0123 27.2903 16.469C26.6101 17.5672 26.2497 18.8334 26.2497 20.1252C26.2497 21.4171 26.6101 22.6833 27.2903 23.7815C26.7558 24.2381 26.0778 24.4924 25.3748 24.5C23.4449 24.5 21.8748 22.5373 21.8748 20.125C21.8748 17.7126 23.4449 15.75 25.3748 15.75ZM14.8748 19.25C16.6931 19.2506 18.4885 19.6549 20.1315 20.4336C20.2409 23.0039 21.7157 25.1598 23.7241 25.938C23.6582 26.3302 23.625 26.7272 23.6248 27.125C23.61 28.5426 24.0442 29.9286 24.8653 31.0843C22.9798 32.1943 21.5289 33.9137 20.7519 35.959C19.975 38.0043 19.9183 40.2533 20.5913 42.3352C18.9469 43.2025 17.1266 43.6842 15.2684 43.7437C13.4102 43.8032 11.5628 43.4389 9.86626 42.6785C8.16971 41.9182 6.66849 40.7816 5.47635 39.355C4.28421 37.9283 3.43243 36.2491 2.98555 34.4444C2.53867 32.6398 2.50842 30.7571 2.89709 28.939C3.28576 27.1209 4.08315 25.4152 5.22885 23.951C6.37454 22.4868 7.83847 21.3026 9.50972 20.4881C11.181 19.6736 13.0157 19.2502 14.8748 19.25Z" fill="#121619"/>
<path d="M6.82489 29.7326C6.98054 29.7654 10.6456 30.567 11.3915 34.2968C11.4312 34.4952 11.5383 34.6737 11.6947 34.802C11.8512 34.9303 12.0473 35.0004 12.2496 35.0004C12.4519 35.0004 12.6479 34.9303 12.8044 34.802C12.9608 34.6737 13.068 34.4952 13.1076 34.2968C13.8527 30.5711 17.5106 29.7666 17.6738 29.7327C17.8715 29.6925 18.0493 29.5852 18.177 29.4289C18.3047 29.2726 18.3744 29.0771 18.3744 28.8753C18.3744 28.6735 18.3047 28.4779 18.177 28.3216C18.0493 28.1654 17.8715 28.058 17.6738 28.0178C17.5182 27.9856 13.8531 27.1834 13.1072 23.4536C13.0675 23.2552 12.9604 23.0767 12.8039 22.9484C12.6475 22.8201 12.4514 22.75 12.2491 22.75C12.0468 22.75 11.8508 22.8201 11.6943 22.9484C11.5379 23.0767 11.4307 23.2552 11.3911 23.4536C10.6451 27.1833 6.9801 27.9856 6.82752 28.0172C6.62941 28.0568 6.45111 28.1637 6.32288 28.3198C6.19464 28.4759 6.12439 28.6716 6.12402 28.8736C6.12366 29.0757 6.19322 29.2716 6.3209 29.4282C6.44857 29.5847 6.62649 29.6923 6.82446 29.7326H6.82489ZM12.2499 26.0971C12.9439 27.2658 13.9404 28.2255 15.1343 28.8752C13.9404 29.5249 12.9439 30.4846 12.2499 31.6533C11.5559 30.4846 10.5594 29.5249 9.36546 28.8752C10.5594 28.2255 11.5559 27.2658 12.2499 26.0971Z" fill="#121619"/>
<path d="M31.5 35C30.9808 35 30.4733 35.154 30.0416 35.4424C29.61 35.7308 29.2735 36.1408 29.0748 36.6205C28.8761 37.1001 28.8242 37.6279 28.9254 38.1371C29.0267 38.6463 29.2767 39.114 29.6438 39.4812C30.011 39.8483 30.4787 40.0983 30.9879 40.1996C31.4971 40.3009 32.0249 40.2489 32.5045 40.0502C32.9842 39.8515 33.3942 39.5151 33.6826 39.0834C33.9711 38.6517 34.125 38.1442 34.125 37.625C34.1242 36.929 33.8474 36.2618 33.3553 35.7697C32.8632 35.2776 32.196 35.0008 31.5 35ZM31.5 38.5C31.3269 38.5 31.1578 38.4487 31.0139 38.3525C30.87 38.2564 30.7578 38.1197 30.6916 37.9599C30.6254 37.8 30.6081 37.624 30.6418 37.4543C30.6756 37.2846 30.7589 37.1287 30.8813 37.0063C31.0037 36.8839 31.1596 36.8006 31.3293 36.7668C31.499 36.7331 31.675 36.7504 31.8349 36.8166C31.9947 36.8828 32.1314 36.995 32.2275 37.1389C32.3237 37.2828 32.375 37.4519 32.375 37.625C32.3747 37.857 32.2825 38.0794 32.1184 38.2434C31.9544 38.4075 31.732 38.4997 31.5 38.5Z" fill="#121619"/>
</svg>
