<svg width="18" height="18" viewBox="0 0 18 18" fill="none" xmlns="http://www.w3.org/2000/svg">
<path fill-rule="evenodd" clip-rule="evenodd" d="M4.96724 0H13.0325C15.7717 0 18.0001 2.22841 18 4.96735V13.0327C18 15.7716 15.7717 18 13.0325 18H4.96724C2.22831 18 0 15.7717 0 13.0327V4.96735C0 2.22841 2.22831 0 4.96724 0ZM13.0326 16.403C14.8911 16.403 16.4031 14.8911 16.4031 13.0326H16.403V4.96735C16.403 3.10903 14.891 1.59705 13.0325 1.59705H4.96724C3.10892 1.59705 1.59705 3.10903 1.59705 4.96735V13.0326C1.59705 14.8911 3.10892 16.4031 4.96724 16.403H13.0326ZM4.28571 9.00011C4.28571 6.40055 6.4005 4.28571 9 4.28571C11.5995 4.28571 13.7143 6.40055 13.7143 9.00011C13.7143 11.5996 11.5995 13.7143 9 13.7143C6.4005 13.7143 4.28571 11.5996 4.28571 9.00011ZM5.90898 9C5.90898 10.7044 7.29568 12.0909 9 12.0909C10.7043 12.0909 12.091 10.7044 12.091 9C12.091 7.29553 10.7044 5.90891 9 5.90891C7.29557 5.90891 5.90898 7.29553 5.90898 9Z" fill="white"/>
</svg>
