<svg width="32" height="30" viewBox="0 0 32 30" fill="none" xmlns="http://www.w3.org/2000/svg">
<path d="M0.469341 12.0999H4.39291C4.65211 12.0999 4.86225 11.8897 4.86225 11.6305C4.86225 11.3713 4.65211 11.1612 4.39291 11.1612H0.469341C0.21014 11.1612 0 11.3713 0 11.6305C0 11.8897 0.21014 12.0999 0.469341 12.0999Z" fill="#121619"/>
<path d="M15.9455 28.6295H14.9C12.882 28.6295 10.9163 28.0555 9.21523 26.9695L9.11786 26.9074C9.04239 26.8592 8.95484 26.8336 8.86536 26.8336H0.469341C0.21014 26.8336 0 27.0438 0 27.303C0 27.5622 0.21014 27.7723 0.469341 27.7723H8.72837C10.5763 28.9472 12.7099 29.5682 14.9 29.5682H15.9455C16.2047 29.5682 16.4149 29.358 16.4149 29.0988C16.4149 28.8396 16.2047 28.6295 15.9455 28.6295Z" fill="#121619"/>
<path d="M31.3116 17.6132C31.3116 16.7821 30.9444 16.0355 30.3643 15.5258C31.3278 15.089 32 14.1188 32 12.9939C32 11.4616 30.7534 10.2149 29.221 10.2149H23.5587C22.9585 10.2149 22.4026 10.4068 21.9478 10.7316H19.8673C19.8715 10.698 19.8777 10.6647 19.8862 10.6318L20.4417 8.47912C20.6673 7.60515 20.7817 6.70432 20.7817 5.80162C20.7817 4.39998 20.5119 3.0317 19.9799 1.73488L19.9094 1.56297C19.6118 0.837746 18.9131 0.369156 18.1292 0.369156C17.2728 0.369156 16.5115 0.944631 16.278 1.76854L15.609 4.12864C15.3794 4.93866 14.9205 5.65694 14.282 6.2057L8.62035 11.0716C8.5532 11.1293 8.46747 11.1611 8.37892 11.1611H6.4008C6.1416 11.1611 5.93146 11.3713 5.93146 11.6305C5.93146 11.8897 6.1416 12.0998 6.4008 12.0998H8.37892C8.69181 12.0998 8.99488 11.9875 9.23218 11.7835L14.8938 6.91759C15.6724 6.24837 16.2321 5.37252 16.512 4.38465L17.1811 2.02455C17.3007 1.60258 17.6905 1.30784 18.1291 1.30784C18.5306 1.30784 18.8885 1.54783 19.0409 1.9193L19.1114 2.0912C19.5968 3.27438 19.8429 4.52276 19.8429 5.80169C19.8429 6.62523 19.7386 7.44714 19.5328 8.24458L18.9772 10.3972C18.9409 10.538 18.9225 10.683 18.9225 10.8284V12.492C18.9225 14.0868 18.5003 15.6594 17.7017 17.0398L17.0322 18.1971C16.9024 18.4214 16.979 18.7085 17.2034 18.8384C17.2774 18.8812 17.3582 18.9016 17.438 18.9016C17.6 18.9016 17.7577 18.8175 17.8447 18.6671L18.5142 17.5099C19.3954 15.9868 19.8611 14.2516 19.8611 12.492V11.6703H21.1156C20.9015 12.0641 20.7797 12.515 20.7797 12.9939C20.7797 13.9555 21.2708 14.8044 22.0152 15.3035C21.2708 15.8027 20.7797 16.6515 20.7797 17.6132C20.7797 18.5748 21.2708 19.4237 22.0152 19.9229C21.2708 20.422 20.7797 21.2709 20.7797 22.2325C20.7797 23.1942 21.2708 24.043 22.0152 24.5422C21.2708 25.0413 20.7797 25.8902 20.7797 26.8518C20.7797 27.5275 21.0223 28.1474 21.4247 28.6296H17.9534C17.6942 28.6296 17.484 28.8397 17.484 29.0989C17.484 29.3581 17.6942 29.5683 17.9534 29.5683C17.9534 29.5683 22.9478 29.5674 22.9632 29.5659C23.1552 29.608 23.3543 29.6308 23.5587 29.6308H26.6552C28.1875 29.6308 29.4342 28.3841 29.4342 26.8518C29.4342 26.0835 29.1207 25.3871 28.6151 24.8836C29.7415 24.5287 30.5606 23.4745 30.5606 22.2324C30.5606 21.4115 30.2025 20.6729 29.6347 20.1637C30.6203 19.7362 31.3116 18.7541 31.3116 17.6132ZM21.7184 12.9939C21.7184 11.9792 22.544 11.1536 23.5587 11.1536H29.221C30.2357 11.1536 31.0613 11.9791 31.0613 12.9939C31.0613 14.0087 30.2358 14.8342 29.221 14.8342H23.5587C22.544 14.8342 21.7184 14.0086 21.7184 12.9939ZM26.6553 28.6921H23.5587C22.544 28.6921 21.7184 27.8665 21.7184 26.8518C21.7184 25.837 22.544 25.0114 23.5587 25.0114H26.6553C27.67 25.0114 28.4956 25.837 28.4956 26.8518C28.4956 27.8665 27.67 28.6921 26.6553 28.6921ZM28.5326 19.4535H27.6934C27.4342 19.4535 27.2241 19.6637 27.2241 19.9229C27.2241 20.1821 27.4342 20.3922 27.6934 20.3922H27.7817C28.7964 20.3922 29.622 21.2177 29.622 22.2325C29.622 23.2473 28.7965 24.0728 27.7817 24.0728H23.5587C22.544 24.0728 21.7184 23.2473 21.7184 22.2325C21.7184 21.2177 22.544 20.3922 23.5587 20.3922H25.6855C25.9447 20.3922 26.1549 20.1821 26.1549 19.9229C26.1549 19.6637 25.9447 19.4535 25.6855 19.4535H23.5587C22.544 19.4535 21.7184 18.628 21.7184 17.6132C21.7184 16.5985 22.544 15.7729 23.5587 15.7729H28.5326C29.5473 15.7729 30.373 16.5984 30.373 17.6132C30.373 18.6279 29.5474 19.4535 28.5326 19.4535Z" fill="#121619"/>
</svg>
