<svg width="20" height="32" viewBox="0 0 20 32" fill="none" xmlns="http://www.w3.org/2000/svg">
<path d="M18.0121 14.7512L16.3827 13.7142V10.7617C16.3827 10.5027 16.1727 10.2927 15.9137 10.2927C15.6547 10.2927 15.4447 10.5027 15.4447 10.7617V13.1255C14.5411 12.6438 13.4174 12.8683 12.7704 13.6828C12.6712 13.8076 12.5886 13.9412 12.5216 14.0804V2.39962C12.5216 1.59375 13.1772 0.938086 13.9831 0.938086C14.789 0.938086 15.4447 1.59375 15.4447 2.39962V8.76285C15.4447 9.02189 15.6547 9.23189 15.9137 9.23189C16.1727 9.23189 16.3827 9.02189 16.3827 8.76285V2.39962C16.3827 1.07649 15.3063 0 13.9831 0C12.66 0 11.5835 1.07649 11.5835 2.39962V7.6167C11.1784 7.30463 10.6717 7.11839 10.122 7.11839C9.1566 7.11839 8.32314 7.69168 7.94265 8.51538C7.50932 8.08893 6.91538 7.8252 6.26079 7.8252C5.71107 7.8252 5.20431 8.01144 4.79925 8.32358V5.02295C4.79925 3.69981 3.72276 2.62333 2.39962 2.62333C1.07649 2.62333 0 3.69975 0 5.02295V18.2338C0 18.4929 0.210006 18.7029 0.469043 18.7029C0.72808 18.7029 0.938086 18.4929 0.938086 18.2338V5.02295C0.938086 4.21707 1.59368 3.56141 2.39962 3.56141C3.20557 3.56141 3.86116 4.21701 3.86116 5.02295V14.6891C3.86116 16.0123 4.93765 17.0887 6.26079 17.0887C7.18468 17.0887 7.98774 16.5636 8.38855 15.7964C8.82577 16.2536 9.4409 16.5393 10.1219 16.5393C11.0976 16.5393 11.9386 15.9535 12.3133 15.1155C12.3374 15.6101 12.5304 16.0966 12.8887 16.4765L14.3085 17.9825L13.6891 18.2136C12.1527 18.7864 10.921 19.9185 10.2208 21.4012C10.1101 21.6355 10.2103 21.915 10.4446 22.0256C10.6789 22.1363 10.9584 22.036 11.069 21.8018C11.6641 20.5416 12.7109 19.5794 14.0168 19.0925L14.9951 18.7277C15.2104 18.6474 15.3701 18.4659 15.4223 18.2421C15.4744 18.0183 15.4114 17.7849 15.2538 17.6177L13.5712 15.833C13.1657 15.4028 13.1371 14.7293 13.5048 14.2663C13.8873 13.7848 14.5669 13.6706 15.0858 14.0008L17.5083 15.5426C18.26 16.021 18.6953 16.8707 18.6445 17.7602L18.4463 21.2326C18.3808 22.3816 17.8757 23.4426 17.0241 24.2202C16.8328 24.3949 16.8193 24.6916 16.994 24.8829C17.0866 24.9842 17.2133 25.0356 17.3405 25.0356C17.4535 25.0356 17.5667 24.9951 17.6567 24.913C18.6902 23.9692 19.3033 22.6811 19.3829 21.2861L19.5811 17.8136C19.6513 16.5852 19.0501 15.4118 18.0121 14.7512ZM7.72233 14.6891C7.72233 15.4949 7.06673 16.1506 6.26079 16.1506C5.45485 16.1506 4.79925 15.4949 4.79925 14.6891V10.2248C4.79925 9.41895 5.45491 8.76329 6.26079 8.76329C7.06667 8.76329 7.72233 9.41895 7.72233 10.2248V14.6891ZM11.5834 14.1396C11.5834 14.9455 10.9278 15.6011 10.1219 15.6011C9.31595 15.6011 8.66035 14.9455 8.66035 14.1396V9.51801C8.66035 8.71213 9.31601 8.05647 10.1219 8.05647C10.9278 8.05647 11.5834 8.71207 11.5834 9.51801V14.1396Z" fill="#121619"/>
<path d="M15.5221 25.5202L13.823 26.9856C13.6827 27.1066 13.6023 27.2822 13.6023 27.4675V31.531C13.6023 31.7901 13.8123 32.0001 14.0713 32.0001C14.3304 32.0001 14.5404 31.7901 14.5404 31.531V27.6058L16.1348 26.2306C16.331 26.0614 16.3528 25.7653 16.1837 25.5691C16.0145 25.3728 15.7183 25.3509 15.5221 25.5202Z" fill="#121619"/>
<path d="M1.71088 26.5663C1.20532 25.4848 0.938088 24.2822 0.938088 23.0883V20.2326C0.938088 19.9736 0.728081 19.7636 0.469044 19.7636C0.210007 19.7636 0 19.9736 0 20.2326V23.0883C0 24.4185 0.297749 25.7585 0.861039 26.9635L1.2304 27.7536C1.24653 27.7881 1.2551 27.8265 1.2551 27.8647V31.5309C1.2551 31.7899 1.46511 31.9999 1.72414 31.9999C1.98318 31.9999 2.19319 31.7899 2.19319 31.5309V27.8647C2.19319 27.6902 2.1541 27.5143 2.08018 27.3563L1.71088 26.5663Z" fill="#121619"/>
</svg>
