<svg width="300" height="300" viewBox="0 0 300 300" fill="none" xmlns="http://www.w3.org/2000/svg">
<path d="M216.733 110.657C216.733 120.204 209 127.942 199.454 127.942C189.912 127.942 182.174 120.204 182.174 110.657C182.174 101.111 189.912 93.3774 199.454 93.3774C209 93.3774 216.733 101.111 216.733 110.657Z" fill="#989898"/>
<path d="M117.379 110.657C117.379 120.204 109.641 127.942 100.099 127.942C90.5575 127.942 82.8193 120.204 82.8193 110.657C82.8193 101.111 90.5575 93.3774 100.099 93.3774C109.641 93.3774 117.379 101.111 117.379 110.657Z" fill="#989898"/>
<path d="M163.213 238.695H139.216C108.824 238.695 84.0967 214.265 84.0967 184.23C84.0967 180.295 87.2869 177.109 91.2173 177.109C95.1478 177.109 98.338 180.295 98.338 184.23C98.338 206.784 116.292 224.453 139.216 224.453H163.213C186.138 224.453 204.092 207.078 204.092 184.895C204.092 180.959 207.282 177.774 211.212 177.774C215.147 177.774 218.333 180.959 218.333 184.895C218.333 215.063 194.122 238.695 163.213 238.695Z" fill="#989898"/>
<path d="M150.002 300C67.3106 300 0.0380859 232.708 0.0380859 149.998C0.0380859 67.2915 67.3106 0 150.002 0C232.689 0 299.962 67.2915 299.962 149.998C299.962 232.708 232.689 300 150.002 300ZM150.002 14.2466C75.1625 14.2466 14.2799 75.1439 14.2799 149.998C14.2799 224.857 75.163 285.753 150.002 285.753C224.838 285.753 285.72 224.856 285.72 149.998C285.72 75.1434 224.838 14.2466 150.002 14.2466Z" fill="#989898"/>
</svg>
