<svg width="22" height="22" viewBox="0 0 22 22" fill="none" xmlns="http://www.w3.org/2000/svg">
<path d="M18.3221 5.44892L18.5781 5.19285H18.216H5.375C4.53957 5.19285 3.73835 5.52472 3.14761 6.11546C2.55687 6.7062 2.225 7.50742 2.225 8.34285C2.225 9.17828 2.55687 9.9795 3.14761 10.5702C3.73835 11.161 4.53957 11.4928 5.375 11.4928H16.625C17.9776 11.4928 19.2748 12.0302 20.2312 12.9866C21.1877 13.943 21.725 15.2402 21.725 16.5928C21.725 17.9455 21.1877 19.2427 20.2312 20.1991C19.2748 21.1555 17.9776 21.6929 16.625 21.6929H3.875C3.61641 21.6929 3.36842 21.5901 3.18557 21.4073C3.00272 21.2244 2.9 20.9764 2.9 20.7178C2.9 20.4593 3.00272 20.2113 3.18557 20.0284C3.36842 19.8456 3.61641 19.7428 3.875 19.7428H16.625C17.4604 19.7428 18.2616 19.411 18.8524 18.8202C19.4431 18.2295 19.775 17.4283 19.775 16.5928C19.775 15.7574 19.4431 14.9562 18.8524 14.3655C18.2616 13.7747 17.4604 13.4429 16.625 13.4429H5.375C4.0224 13.4428 2.72519 12.9055 1.76876 11.9491C0.81232 10.9927 0.275 9.69545 0.275 8.34285C0.275 6.99024 0.81232 5.69304 1.76876 4.7366C2.72519 3.78017 4.0224 3.24285 5.375 3.24285H18.216H18.5781L18.3221 2.98678L17.1971 1.86178C17.1125 1.77722 17.0454 1.67683 16.9996 1.56634C16.9539 1.45586 16.9303 1.33744 16.9303 1.21785C16.9303 1.09826 16.9539 0.97984 16.9996 0.869354C17.0454 0.758869 17.1125 0.658479 17.197 0.573917L17.091 0.467849L17.1971 0.573913C17.2816 0.489349 17.382 0.422269 17.4925 0.376502C17.603 0.330736 17.7214 0.307181 17.841 0.307181C17.9606 0.307181 18.079 0.330736 18.1895 0.376502C18.3 0.422269 18.4004 0.489349 18.4849 0.573913L21.4395 3.5284C21.6223 3.71125 21.725 3.95924 21.725 4.21783C21.725 4.47641 21.6223 4.7244 21.4395 4.90725L18.4849 7.86178C18.3141 8.03256 18.0825 8.1285 17.841 8.1285C17.5995 8.1285 17.3678 8.03256 17.197 7.86178C17.1125 7.77722 17.0454 7.67683 16.9996 7.56634C16.9539 7.45586 16.9303 7.33744 16.9303 7.21785C16.9303 7.09826 16.9539 6.97984 16.9996 6.86935C17.0454 6.75887 17.1125 6.65848 17.197 6.57392L18.3221 5.44892Z" fill="#FF5B59" stroke="#121619" stroke-width="0.3"/>
</svg>
