<svg width="20" height="32" viewBox="0 0 20 32" fill="none" xmlns="http://www.w3.org/2000/svg">
<path d="M18.4041 14.775L16.3762 13.4843L18.4653 4.24151C18.7536 2.96597 17.9752 1.66994 16.7303 1.35243C16.0971 1.19099 15.442 1.28967 14.8857 1.63041C14.3291 1.97122 13.9433 2.50938 13.7994 3.1459L12.9093 7.08413C12.8523 7.33644 13.0106 7.58726 13.2629 7.64428C13.515 7.70123 13.766 7.54298 13.8231 7.29067L14.7132 3.35243C14.8008 2.96478 15.0358 2.63697 15.3748 2.42937C15.7137 2.2219 16.113 2.1617 16.4988 2.26025C17.2568 2.45354 17.7291 3.24976 17.5516 4.03504L15.5222 13.0134C14.6868 12.7295 13.7416 12.988 13.1696 13.708C12.5148 14.5324 12.5656 15.7318 13.2878 16.4979L14.7057 18.0019L14.0871 18.2325C12.5528 18.8046 11.3228 19.9351 10.6236 21.4158C10.5131 21.6497 10.6132 21.9289 10.8472 22.0393C11.0809 22.1497 11.3602 22.0497 11.4707 21.8158C12.0649 20.5573 13.1103 19.5965 14.4144 19.1102L15.3915 18.746C15.6065 18.6658 15.7659 18.4845 15.818 18.261C15.87 18.0375 15.8071 17.8044 15.6497 17.6375L13.9695 15.8552C13.5645 15.4257 13.536 14.7531 13.9032 14.2907C14.2851 13.8099 14.9641 13.6959 15.482 14.0256L17.9012 15.5653C18.6517 16.0429 19.0865 16.8915 19.0358 17.7798L18.8378 21.2475C18.7706 22.4259 18.2194 23.5437 17.3257 24.3146L14.2208 26.9926C14.0807 27.1134 14.0004 27.2888 14.0004 27.4738V31.5317C14.0004 31.7904 14.2101 32.0001 14.4688 32.0001C14.7276 32.0001 14.9372 31.7904 14.9372 31.5317V27.6118L17.9376 25.0239C19.0225 24.0883 19.6915 22.7313 19.7731 21.3009L19.9712 17.8332C20.0411 16.6064 19.4406 15.4346 18.4041 14.775Z" fill="#121619"/>
<path d="M11.8238 14.0637C11.8319 14.0641 11.84 14.0643 11.8481 14.0643C12.1068 14.0643 12.3324 13.8855 12.39 13.631L13.3723 9.28478C13.4293 9.03247 13.271 8.78166 13.0187 8.72464C12.7664 8.66749 12.5155 8.82594 12.4586 9.07825L11.9401 11.3723L10.6723 2.11079C10.4949 0.815196 9.31191 -0.125786 8.03418 0.0136716C7.38467 0.0844935 6.80573 0.406689 6.40416 0.920866C6.00246 1.43523 5.82996 2.0745 5.91846 2.72102L6.8733 9.6966C6.6822 9.64732 6.48191 9.62115 6.27563 9.62115C5.15191 9.62115 4.20686 10.3988 3.94918 11.444C3.53393 11.0989 3.00071 10.891 2.41977 10.891C1.09844 10.891 0.0234375 11.966 0.0234375 13.2873V16.5567C0.0234375 17.2576 0.325961 17.8891 0.807225 18.3277V21.0029C0.807225 21.2615 1.01694 21.4713 1.27562 21.4713C1.53431 21.4713 1.74402 21.2615 1.74402 21.0029V18.8554C1.95849 18.9186 2.18513 18.9531 2.41977 18.9531C3.30573 18.9531 4.08027 18.4695 4.49496 17.7527C4.93388 18.2402 5.56947 18.5474 6.27556 18.5474C7.59689 18.5474 8.67189 17.4725 8.67189 16.1511V15.8246C8.67189 15.5659 8.46218 15.3562 8.2035 15.3562C7.94481 15.3562 7.7351 15.5659 7.7351 15.8246V16.1511C7.7351 16.9558 7.08034 17.6106 6.27556 17.6106C5.47079 17.6106 4.81603 16.9559 4.81603 16.1511V12.0175C4.81603 11.2127 5.47073 10.558 6.27556 10.558C7.0804 10.558 7.7351 11.2126 7.7351 12.0175V13.8285C7.7351 14.0872 7.94481 14.2969 8.2035 14.2969C8.46218 14.2969 8.67189 14.0872 8.67189 13.8285V12.0175C8.67189 11.3199 8.37212 10.6913 7.89491 10.253L6.84657 2.59399C6.79268 2.20022 6.89772 1.81082 7.14242 1.4975C7.38698 1.18436 7.73972 0.988066 8.13567 0.944911C8.91371 0.860224 9.63492 1.44016 9.74409 2.23782L11.2972 13.5837C11.3336 13.8502 11.555 14.052 11.8238 14.0637ZM3.8793 16.5567C3.8793 17.3615 3.22454 18.0162 2.41977 18.0162C1.61499 18.0162 0.960235 17.3615 0.960235 16.5567V13.2873C0.960235 12.4825 1.61499 11.8277 2.41977 11.8277C3.22454 11.8277 3.8793 12.4825 3.8793 13.2873V16.5567Z" fill="#121619"/>
<path d="M2.6849 26.988C2.06937 25.7928 1.74405 24.4505 1.74405 23.1062V22.9989C1.74405 22.7403 1.53433 22.5305 1.27565 22.5305C1.01697 22.5305 0.807251 22.7403 0.807251 22.9989V23.1062C0.807251 24.5991 1.16854 26.0896 1.85209 27.4168L1.92397 27.5564C2.01335 27.73 2.06062 27.9248 2.06062 28.12V31.5315C2.06062 31.7902 2.27034 31.9999 2.52902 31.9999C2.7877 31.9999 2.99742 31.7902 2.99742 31.5315V28.12C2.99742 27.7763 2.91423 27.4331 2.75685 27.1275L2.6849 26.988Z" fill="#121619"/>
</svg>
